PathFileType	4	(X/Y/Z)	\\move.snu.ac.kr\motion\Animal\091204_091205_Bird\091205_bird\Project 2\Capture day 2\Session 1\pigeon_021.trc
DataRate	CameraRate	NumFrames	NumMarkers	Units	OrigDataRate	OrigDataStartFrame	OrigNumFrames
240.0	240.0	24	14	mm	240.0	140	2193
Frame#	Time	14MarkersBird:Head			14MarkersBird:C_back			14MarkersBird:Spine			14MarkersBird:L-shoulder			14MarkersBird:L-elbow			14MarkersBird:L-wrist			14MarkersBird:L-hand			14MarkersBird:R-shoulder			14MarkersBird:R-elbow			14MarkersBird:R-Wrist			14MarkersBird:R-hand			14MarkersBird:C_Tail			14MarkersBird:L-Tale			14MarkersBird:R-Tale			
		X1	Y1	Z1	X2	Y2	Z2	X3	Y3	Z3	X4	Y4	Z4	X5	Y5	Z5	X6	Y6	Z6	X7	Y7	Z7	X8	Y8	Z8	X9	Y9	Z9	X10	Y10	Z10	X11	Y11	Z11	X12	Y12	Z12	X13	Y13	Z13	X14	Y14	Z14	

1009	4.200	-117.95551	1187.14075	-2262.89917	-61.75185	1191.66101	-2250.89502	-5.90636	1191.78101	-2248.90161	-90.43611	1182.94836	-2235.84985	-74.73270	1174.02063	-2207.50269	-110.33612	1153.49634	-2199.59473	-123.32629	1136.73083	-2189.33032	-88.48257	1180.48328	-2280.37964	-75.39713	1178.64709	-2301.04224	-107.04668	1156.31702	-2309.59888	-123.53793	1131.73547	-2328.45898	98.51171	1124.00989	-2234.00415	25.90076	1139.79016	-2160.86890	53.89187	1155.78552	-2340.63086	
1010	4.204	-131.49857	1183.25293	-2264.23267	-75.07547	1188.10352	-2252.88916	-19.89427	1186.61536	-2251.82251	-103.50060	1179.22998	-2237.48438	-86.46832	1169.27039	-2209.47266	-124.09973	1149.78174	-2205.13184	-138.00804	1130.12305	-2198.86108	-101.74837	1176.87964	-2281.94092	-87.54346	1174.17371	-2302.71753	-121.10136	1152.79077	-2307.38184	-138.67262	1124.25220	-2321.50952	85.86574	1120.39648	-2240.55835	16.51224	1133.52258	-2165.82129	39.54642	1152.80469	-2344.33057	
1011	4.208	-145.24861	1179.22559	-2265.57251	-88.60725	1184.29309	-2255.01416	-33.28496	1182.93958	-2254.45117	-116.68228	1175.49109	-2239.26489	-97.76656	1165.85791	-2211.85962	-137.00226	1148.61963	-2209.40015	-151.28337	1126.85486	-2206.28296	-115.23573	1173.28613	-2283.58228	-99.13666	1170.99609	-2304.09253	-134.40591	1151.65442	-2306.40332	-152.28140	1120.15894	-2316.59839	73.13549	1117.04993	-2246.83594	6.77151	1127.56250	-2170.71729	24.83224	1149.56775	-2348.01465	
1012	4.213	-159.15723	1175.06641	-2266.93848	-102.36950	1180.19360	-2257.28906	-46.87500	1178.97620	-2257.07935	-129.99905	1171.67798	-2241.21777	-108.78243	1163.68127	-2214.73022	-149.16589	1149.66772	-2212.41553	-163.01691	1126.49768	-2210.95483	-128.80435	1169.58777	-2285.21606	-110.36014	1169.04358	-2305.04907	-147.01830	1152.54260	-2306.77832	-164.29788	1119.03687	-2314.44678	60.17227	1113.63806	-2252.73242	-3.46930	1121.94226	-2175.36304	9.82197	1146.23877	-2351.63501	
1013	4.217	-173.15355	1170.81555	-2268.31494	-116.32308	1175.79382	-2259.65161	-60.64358	1174.75427	-2259.68750	-143.43015	1167.72058	-2243.32373	-119.69210	1162.46179	-2218.18384	-160.59666	1152.31628	-2214.36499	-173.07065	1128.51892	-2212.92065	-142.45361	1165.78394	-2286.80615	-121.65925	1166.15442	-2308.71997	-159.04233	1154.96423	-2308.25244	-174.66864	1120.46277	-2315.26392	46.93816	1109.94446	-2258.12207	-14.39506	1116.65894	-2179.57935	-5.37982	1143.05359	-2355.16504	
1014	4.221	-187.17039	1166.46313	-2269.71289	-130.46089	1171.10571	-2262.05029	-74.55228	1170.29004	-2262.23853	-156.95593	1163.57080	-2245.55054	-130.70348	1161.83728	-2222.32739	-171.45415	1155.96594	-2215.69189	-181.56883	1132.39612	-2212.73120	-156.15665	1161.90674	-2288.31323	-131.34517	1166.19165	-2310.52930	-170.63812	1158.33167	-2310.42285	-183.43294	1124.11584	-2318.62549	33.41764	1105.84802	-2262.91821	-26.16027	1111.76025	-2183.21191	-20.68756	1140.19775	-2358.57959	
1015	4.225	-201.16156	1162.02759	-2271.14331	-144.67957	1166.20886	-2264.41650	-88.54665	1165.62769	-2264.72021	-170.57837	1159.21851	-2247.84619	-142.00606	1161.41235	-2227.16211	-181.94106	1160.05603	-2216.91772	-188.69563	1137.67480	-2211.26733	-169.90744	1157.87805	-2289.66870	-140.96712	1168.26489	-2310.26758	-181.95151	1162.11475	-2312.77612	-190.75534	1129.67480	-2323.68652	19.63381	1101.32629	-2267.04639	-38.85989	1107.33582	-2186.13477	-36.01857	1137.79297	-2361.88843	
1016	4.229	-215.07011	1157.52234	-2272.60889	-158.97200	1161.11536	-2266.73682	-102.59158	1160.75879	-2267.11719	-184.25261	1154.64111	-2250.11060	-153.74568	1160.80115	-2232.60010	-192.23222	1164.11060	-2218.52588	-194.80219	1144.06958	-2209.66748	-183.70216	1153.73254	-2290.90747	-152.18588	1170.21033	-2306.89014	-193.09157	1165.85034	-2314.81396	-196.92889	1136.85132	-2329.22339	5.66244	1096.43457	-2270.45532	-52.51249	1103.45593	-2188.31421	-51.32873	1135.85339	-2365.01196	
1017	4.233	-228.89233	1152.93262	-2274.13672	-173.23784	1155.91577	-2268.97046	-117.10966	1156.54553	-2269.82837	-197.98970	1149.85901	-2252.31665	-166.06841	1159.72693	-2238.45923	-202.51630	1167.75879	-2220.76221	-200.40144	1151.25342	-2209.00366	-197.50583	1149.46228	-2292.06519	-165.84003	1171.09583	-2301.49731	-204.21440	1169.22583	-2316.21411	-202.51363	1145.40125	-2334.09644	-8.30911	1091.34460	-2273.12988	-67.05007	1100.09949	-2189.77271	-66.56107	1134.25659	-2367.93457	
1018	4.238	-242.61964	1148.26953	-2275.72095	-187.40480	1150.65125	-2271.08276	-130.90959	1151.44250	-2271.94312	-211.75880	1144.88049	-2254.42188	-179.11794	1158.00806	-2244.46094	-212.98589	1170.69055	-2223.55151	-206.15999	1158.83899	-2209.93018	-211.29053	1145.01270	-2293.22729	-179.09268	1169.88611	-2298.20752	-215.49033	1172.05359	-2317.01147	-208.14421	1155.04883	-2337.51440	-22.18687	1086.29065	-2275.04272	-82.32170	1097.14893	-2190.61938	-81.68825	1132.74805	-2370.68042	
1019	4.242	-256.25693	1143.53394	-2277.38916	-201.50888	1145.39441	-2273.12402	-144.92342	1145.53406	-2273.88257	-225.49101	1139.72290	-2256.36719	-192.83684	1155.53430	-2250.18823	-223.75374	1172.65100	-2226.63550	-212.72681	1166.36670	-2212.36157	-225.07408	1140.37695	-2294.50903	-193.10580	1167.80774	-2295.09229	-226.96071	1174.10266	-2317.43872	-214.48970	1165.28979	-2339.30200	-35.79326	1081.49377	-2276.29248	-98.11265	1094.44019	-2191.02710	-96.67931	1130.94165	-2373.27979	
1020	4.246	-269.82675	1138.70020	-2279.14160	-215.44995	1140.14453	-2275.08521	-158.60713	1139.94727	-2276.00098	-239.15860	1134.40649	-2258.15381	-207.09117	1152.33411	-2255.26025	-234.82793	1173.34143	-2229.51758	-220.56616	1173.32007	-2215.73535	-238.83864	1135.55969	-2295.97559	-207.78207	1164.85791	-2292.67896	-238.67145	1175.12146	-2317.98438	-222.08052	1175.30090	-2339.90454	-49.05929	1077.12415	-2276.97437	-114.19008	1091.86230	-2191.22461	-111.50688	1128.46155	-2375.78784	
1021	4.250	-283.33475	1133.77942	-2280.94165	-229.19044	1134.87378	-2276.96899	-172.61073	1133.62842	-2278.06738	-252.75752	1129.01221	-2259.81323	-221.73668	1148.49731	-2259.32104	-246.27373	1172.52002	-2231.70776	-229.91240	1178.88635	-2219.09863	-252.60382	1130.59204	-2297.67822	-223.04358	1161.10596	-2291.51685	-250.64461	1174.86084	-2319.15649	-231.31181	1184.11658	-2340.13672	-61.99209	1073.26587	-2277.26587	-130.30145	1089.29749	-2191.41821	-126.18073	1124.96924	-2378.23730	
1022	4.254	-296.80219	1128.76050	-2282.78906	-242.70552	1129.60925	-2278.80615	-186.45181	1127.31824	-2280.12500	-266.23804	1123.56165	-2261.37451	-236.54932	1144.10266	-2262.10986	-258.07104	1169.94385	-2232.75293	-240.99683	1182.21326	-2221.59351	-266.31995	1125.45483	-2299.62988	-238.38200	1156.67444	-2291.81201	-263.00711	1173.13367	-2321.44849	-242.46124	1190.75000	-2340.94971	-74.69775	1069.75513	-2277.39233	-146.26523	1086.56982	-2191.79272	-140.69493	1120.29700	-2380.65747	
1023	4.258	-310.25348	1123.69727	-2284.66040	-256.02924	1124.33606	-2280.56836	-199.89653	1121.01343	-2282.15991	-279.60818	1118.11243	-2262.86304	-251.36275	1139.20166	-2263.51587	-270.24536	1165.44751	-2232.35498	-253.72784	1182.50854	-2222.33398	-280.03613	1120.18835	-2301.82983	-253.49768	1151.74988	-2293.72559	-275.81873	1169.77246	-2325.16724	-255.63206	1194.25684	-2343.27026	-87.27116	1066.39136	-2277.55664	-161.91327	1083.49304	-2192.47583	-155.04294	1114.45410	-2383.08008	
1024	4.262	-323.71234	1118.59961	-2286.54834	-269.17798	1119.06189	-2282.27563	-213.04900	1114.79004	-2284.16406	-292.90973	1112.72363	-2264.33447	-266.07346	1133.82593	-2263.61401	-282.85834	1158.89832	-2230.52637	-267.93488	1179.21899	-2220.75000	-293.77219	1114.84595	-2304.22412	-268.39667	1146.38477	-2297.24121	-289.14975	1164.61108	-2330.34473	-270.83829	1193.88623	-2347.73560	-99.87554	1062.86987	-2277.98389	-177.12027	1079.87708	-2193.52808	-169.24281	1107.57117	-2385.52173	
1025	4.267	-337.18903	1113.53076	-2288.41675	-282.16840	1113.81995	-2283.91064	-226.01338	1108.72424	-2286.12988	-306.19437	1107.42517	-2265.80298	-280.62912	1127.92969	-2262.60645	-296.01257	1150.25818	-2227.60718	-283.30286	1172.07312	-2216.86035	-307.53363	1109.43896	-2306.71826	-282.94305	1140.71082	-2302.03418	-303.14435	1157.57056	-2336.68921	-287.91650	1189.14587	-2354.53833	-112.70607	1058.85217	-2278.86475	-191.80176	1075.56055	-2194.96924	-183.34019	1099.88184	-2387.96509	
1026	4.271	-350.69354	1108.51953	-2290.23486	-295.11340	1108.62524	-2285.45215	-238.89380	1102.89197	-2288.04907	-319.46606	1102.19177	-2267.27075	-295.06061	1121.42700	-2260.78882	-309.80768	1139.53796	-2224.15479	-299.67090	1161.07813	-2211.29810	-321.34930	1104.08179	-2309.18628	-297.25262	1134.65613	-2307.78613	-317.92935	1148.59485	-2343.64600	-306.58911	1179.99268	-2363.30762	-125.89840	1054.13391	-2280.32837	-205.94333	1070.44226	-2196.82153	-197.35905	1091.73535	-2390.35889	
1027	4.275	-364.26135	1103.59961	-2291.98877	-308.04001	1103.56714	-2286.87769	-251.79442	1097.36926	-2289.91406	-332.80927	1097.06763	-2268.75977	-309.43689	1114.24524	-2258.50024	-324.40503	1126.91614	-2220.87451	-316.97021	1146.50598	-2205.08374	-335.24081	1098.76282	-2311.53223	-313.13647	1127.04492	-2313.90576	-333.59131	1137.77893	-2350.52979	-326.60431	1166.69482	-2373.12305	-139.55646	1048.59888	-2282.42236	-219.58932	1064.47607	-2199.06226	-211.29149	1083.52881	-2392.70557	
1028	4.279	-377.89093	1098.80933	-2293.65674	-321.07117	1098.67883	-2288.19727	-264.81934	1092.23242	-2291.71704	-346.23309	1092.04138	-2270.20532	-323.84225	1106.38538	-2256.07275	-339.86105	1112.77209	-2218.47900	-335.12579	1128.95935	-2199.46802	-349.20337	1093.57947	-2313.69312	-325.96405	1120.38184	-2320.35864	-350.09576	1125.33081	-2356.63062	-347.53159	1149.83557	-2382.66968	-153.76814	1042.25500	-2285.10742	-232.78546	1057.76929	-2201.68433	-225.15067	1075.65747	-2394.93774	
1029	4.283	-391.61240	1094.14929	-2295.24951	-334.26779	1094.00415	-2289.44409	-278.07275	1087.55725	-2293.45020	-359.77939	1087.11609	-2271.59448	-338.30814	1097.94128	-2253.83569	-356.17163	1097.68433	-2217.57935	-354.05920	1109.37671	-2195.74756	-363.26718	1088.60046	-2315.63428	-341.53558	1110.93970	-2328.30444	-367.33694	1111.68945	-2361.29468	-369.14651	1130.32739	-2390.57056	-168.55095	1035.23254	-2288.32715	-245.58807	1050.49329	-2204.67603	-238.93355	1068.44592	-2396.99463	
1030	4.287	-405.44672	1089.61218	-2296.74805	-347.61707	1089.54797	-2290.61182	-291.65875	1083.42004	-2295.10547	-373.53253	1082.34863	-2272.92407	-352.97928	1089.11584	-2252.12085	-373.23694	1082.39270	-2218.50635	-373.69040	1088.81982	-2195.03442	-377.41928	1083.81921	-2317.33130	-359.15045	1102.10266	-2335.35254	-385.09763	1097.50671	-2364.07715	-390.89896	1109.18616	-2395.50635	-183.78040	1027.79370	-2291.98682	-258.09717	1042.82654	-2207.99146	-252.66386	1062.09375	-2398.86841	
1031	4.292	-419.41269	1085.18506	-2298.16724	-361.24274	1085.36157	-2291.76563	-305.68152	1079.89673	-2296.67505	-387.48593	1077.69629	-2274.20093	-367.84653	1080.16943	-2251.07471	-390.90121	1067.72412	-2221.32959	-393.85599	1068.44263	-2197.81055	-391.69205	1079.23621	-2318.83936	-376.25137	1092.77112	-2338.97485	-403.11533	1083.54785	-2364.86401	-412.50146	1087.72083	-2396.80835	-199.33438	1020.25177	-2295.95313	-270.40564	1034.95728	-2211.56958	-266.38196	1056.57397	-2400.57886	
1032	4.296	-433.53232	1080.82861	-2299.54492	-375.15146	1081.42896	-2292.94922	-320.06500	1076.94824	-2298.16187	-401.66144	1073.20825	-2275.41943	-382.77072	1071.41931	-2250.77441	-408.81494	1054.40039	-2225.76147	-414.28824	1049.55701	-2203.91431	-406.09268	1074.85474	-2320.19458	-392.84732	1084.08252	-2340.49536	-421.04657	1070.54248	-2363.84106	-433.63892	1067.19519	-2394.52905	-215.08414	1012.93555	-2300.08667	-282.61902	1027.12231	-2215.33594	-280.15646	1051.71313	-2402.19604	
